<?xml version="1.0" encoding="utf-8"?>
<!-- Generator: Adobe Illustrator 23.1.0, SVG Export Plug-In . SVG Version: 6.00 Build 0)  -->
<svg version="1.1" id="Capa_1" xmlns="http://www.w3.org/2000/svg" xmlns:xlink="http://www.w3.org/1999/xlink" x="0px" y="0px"
	 viewBox="0 0 98.11 58.78" style="enable-background:new 0 0 98.11 58.78;" xml:space="preserve">
<style type="text/css">
	.st0{fill:#00022B;}
</style>
<g>
	<path class="st0" d="M51.13,47.31c-3.43,1.13-9.53,2.54-15.44,2.54c-8.76,0-14.73-2.13-18.64-5.86c-3.79-3.55-5.8-8.4-5.8-13.79
		c0-13.79,10.95-21.06,25.15-21.06c6.1,0,10.77,1.07,13.13,2.19l-2.36,8.76c-2.6-1.07-5.68-1.95-11.12-1.95
		c-6.98,0-13.02,3.43-13.02,11.07c0,7.1,5.33,11.77,13.02,11.77c1.84,0,3.55-0.18,4.14-0.41v-6.45h-6.15v-8.58h17.1V47.31
		L51.13,47.31z"/>
</g>
<g>
	<path class="st0" d="M56.67,38.32c2.66,1.3,6.92,2.78,11.48,2.78c3.73,0,5.62-1.18,5.62-3.19c0-1.72-1.84-2.84-6.69-4.2
		c-6.81-1.89-12.42-5.38-12.42-12.31c0-7.22,6.51-12.54,16.86-12.54c5.44,0,9.11,0.95,12.19,2.25l-2.54,8.76
		c-1.89-0.77-5.27-2.07-9.82-2.07c-3.31,0-5.21,1.07-5.21,2.78c0,2.13,2.54,2.84,7.75,4.5c7.75,2.48,11.42,6.21,11.42,12.25
		c0,6.69-5.27,12.84-17.99,12.84c-5.27,0-10.41-1.42-12.96-2.72L56.67,38.32z"/>
</g>
<path class="st0" d="M1.68,1.45v55.96h95.6V1.45C97.28,1.45,1.68,1.45,1.68,1.45z M94.7,54.74H3.61V3.78H94.7V54.74z"/>
</svg>
